<svg width="31" height="31" viewBox="0 0 31 31" fill="none" xmlns="http://www.w3.org/2000/svg">
<circle cx="15.5" cy="15.5" r="8.5" fill="black"/>
<path fill-rule="evenodd" clip-rule="evenodd" d="M6 15.0082C6 20.5355 10.4764 25.0175 16.0004 25.0175C21.5234 25.0175 26.0008 20.5355 26.0008 15.0082C26.0008 9.48098 21.5234 5 16.0004 5C10.4764 5 6 9.48098 6 15.0082ZM12.9353 23.6923C9.56438 22.3706 7.17568 19.0881 7.17568 15.246C7.17568 10.2355 11.2333 6.1758 16.2388 6.1758C21.2444 6.1758 25.302 10.2355 25.302 15.246C25.302 20.2555 21.2444 24.3163 16.2388 24.3163C15.3037 24.3163 14.4028 24.1748 13.5555 23.911C13.924 23.3086 14.4768 22.3213 14.6813 21.5333C14.7917 21.1088 15.2458 19.3775 15.2458 19.3775C15.5415 19.9414 16.4049 20.4195 17.3239 20.4195C20.0565 20.4195 22.0263 17.9035 22.0263 14.7776C22.0263 11.7813 19.583 9.53868 16.4391 9.53868C12.5283 9.53868 10.4513 12.1672 10.4513 15.0284C10.4513 16.3577 11.1583 18.015 12.2894 18.5424C12.4619 18.6218 12.554 18.5864 12.5936 18.4202C12.6058 18.3694 12.6381 18.2382 12.6769 18.0809C12.7338 17.8498 12.8046 17.5625 12.8454 17.3922C12.8668 17.3 12.8561 17.2217 12.7822 17.1317C12.4073 16.6772 12.1084 15.841 12.1084 15.0616C12.1084 13.0613 13.622 11.1252 16.2003 11.1252C18.4272 11.1252 19.9858 12.6432 19.9858 14.8151C19.9858 17.2689 18.7475 18.9691 17.1365 18.9691C16.2474 18.9691 15.5811 18.2337 15.7943 17.33C15.8868 16.9404 16.0104 16.5397 16.1307 16.1501C16.3433 15.4614 16.5452 14.8073 16.5452 14.3102C16.5452 13.6134 16.1713 13.0323 15.399 13.0323C14.4885 13.0323 13.7591 13.9736 13.7591 15.2353C13.7591 16.0382 14.0301 16.5817 14.0301 16.5817C14.0301 16.5817 13.1314 20.382 12.9675 21.0895C12.7854 21.8742 12.8561 22.9752 12.9353 23.6923Z" fill="white"/>
<circle cx="15.5" cy="15.5" r="15" stroke="black" stroke-opacity="0.2"/>
</svg>
