<svg width="20" height="18" viewBox="0 0 20 18" fill="none" xmlns="http://www.w3.org/2000/svg">
<path fill-rule="evenodd" clip-rule="evenodd" d="M10.1923 0H10.1914C10.1742 0 10.1579 0 10.1425 0.000198453C10.0193 0.00138917 9.81689 0.00327447 9.7987 0.00347292C9.35471 0.00347292 8.46638 0.0635048 7.51217 0.466661C6.9666 0.697015 6.47586 1.00849 6.05365 1.39244C5.55026 1.84993 5.14018 2.41398 4.835 3.06917C4.38806 4.02849 4.49416 5.64434 4.57937 6.94287L4.57968 6.9449C4.5888 7.08397 4.59839 7.22918 4.60715 7.37068C4.54158 7.3995 4.43528 7.42992 4.27859 7.42992C4.02649 7.42992 3.72669 7.35277 3.38777 7.20075C3.28805 7.1563 3.17423 7.13383 3.04864 7.13383C2.84686 7.13383 2.63415 7.19068 2.44963 7.29452C2.21748 7.42501 2.06748 7.60942 2.02674 7.81387C1.99989 7.94912 2.00119 8.21643 2.3114 8.48752C2.48203 8.63676 2.73268 8.77438 3.05621 8.89678C3.14111 8.92878 3.24187 8.95934 3.34859 8.99174C3.71892 9.10441 4.27942 9.27463 4.42558 9.60392C4.49965 9.77086 4.46777 9.99055 4.3311 10.2561C4.32752 10.2633 4.32394 10.2704 4.32068 10.2779C4.28652 10.3542 3.96786 11.0451 3.31422 11.7738C2.9428 12.1882 2.5337 12.5345 2.09894 12.8034C1.5683 13.1317 0.994113 13.3463 0.392511 13.4411C0.156265 13.4783 -0.0124448 13.6797 0.000720234 13.9087C0.00476305 13.9747 0.0209343 14.0405 0.0489749 14.1041L0.0496487 14.1053C0.145173 14.3192 0.366647 14.5008 0.726717 14.6611C1.16671 14.8567 1.82476 15.0213 2.6824 15.15C2.72573 15.2289 2.77072 15.4272 2.80187 15.5629C2.83448 15.7072 2.86848 15.8555 2.91694 16.0131C2.96924 16.1838 3.10488 16.3878 3.45334 16.3878C3.5854 16.3878 3.73727 16.3593 3.91313 16.3267C4.17068 16.2783 4.52287 16.2123 4.96245 16.2123C5.20616 16.2123 5.45873 16.2329 5.71296 16.2733C6.20302 16.3514 6.6255 16.6371 7.11432 16.9679C7.82979 17.452 8.63965 18 9.87701 18C9.91075 18 9.9446 17.999 9.97803 17.9967C10.0189 17.9986 10.0696 18 10.1231 18C11.3608 18 12.1705 17.4518 12.8852 16.9681L12.8863 16.9671C13.3752 16.6367 13.7972 16.3514 14.2872 16.2733C14.5413 16.2329 14.7938 16.2123 15.0376 16.2123C15.4576 16.2123 15.79 16.2636 16.0869 16.319C16.2807 16.3555 16.4312 16.3731 16.5468 16.3731L16.5581 16.3733H16.5698C16.8246 16.3733 17.0119 16.2394 17.0834 16.0051C17.1309 15.8508 17.1648 15.7059 17.1982 15.5592C17.2273 15.432 17.2739 15.2281 17.3172 15.1484C18.1754 15.0194 18.8332 14.8552 19.2732 14.6596C19.6325 14.5001 19.8537 14.3186 19.9498 14.1056C19.9786 14.0418 19.9955 13.9756 19.9992 13.9082C20.0128 13.6796 19.8438 13.4778 19.6074 13.4406C16.9337 13.0188 15.7292 10.3891 15.6794 10.2774C15.6762 10.2701 15.6725 10.2628 15.6688 10.2557C15.5321 9.99006 15.5005 9.77062 15.5746 9.60337C15.7205 9.27439 16.2806 9.10416 16.6512 8.99154C16.7585 8.95919 16.8596 8.92843 16.9439 8.89658C17.3087 8.75866 17.5695 8.60902 17.7415 8.4391C17.9469 8.23653 17.987 8.04244 17.9845 7.91543C17.9782 7.60813 17.7328 7.33506 17.3424 7.20135C17.2105 7.14916 17.0602 7.12162 16.9071 7.12162C16.8028 7.12162 16.6485 7.13531 16.5024 7.20061C16.1896 7.34071 15.9094 7.41732 15.6688 7.42823C15.5409 7.42203 15.4512 7.39549 15.3931 7.37013C15.4004 7.25027 15.4085 7.12713 15.4168 6.99873L15.4203 6.94376C15.506 5.64439 15.6124 4.0273 15.1653 3.06728C14.8588 2.40976 14.4473 1.84427 13.9419 1.38579C13.518 1.00159 13.0256 0.690169 12.478 0.459964C11.5252 0.0597838 10.6369 0 10.1923 0Z" fill="black"/>
</svg>
