<svg width="31" height="31" viewBox="0 0 31 31" fill="none" xmlns="http://www.w3.org/2000/svg">
<path fill-rule="evenodd" clip-rule="evenodd" d="M16.2545 12.7242L16.2913 13.3298L15.6771 13.2556C13.4416 12.9714 11.4885 12.0075 9.83023 10.3886L9.01953 9.5853L8.81071 10.1785C8.3685 11.5008 8.65102 12.8972 9.57228 13.8364C10.0636 14.3555 9.95307 14.4296 9.10551 14.1207C8.81071 14.0218 8.55275 13.9477 8.52819 13.9847C8.4422 14.0712 8.73701 15.1958 8.97039 15.6407C9.28976 16.2586 9.94078 16.8641 10.6532 17.2225L11.2551 17.5067L10.5427 17.5191C9.8548 17.5191 9.83023 17.5315 9.90393 17.791C10.1496 18.5942 11.12 19.4469 12.2009 19.8177L12.9625 20.0772L12.2992 20.4727C11.3165 21.0411 10.1619 21.3624 9.00724 21.3871C8.45449 21.3995 8 21.4489 8 21.486C8 21.6096 9.49858 22.3016 10.3707 22.5735C12.9871 23.3768 16.0948 23.0307 18.4286 21.659C20.0869 20.6827 21.7452 18.7425 22.519 16.8641C22.9367 15.8631 23.3543 14.0342 23.3543 13.1567C23.3543 12.5883 23.3911 12.5141 24.079 11.8344C24.4844 11.439 24.8652 11.0065 24.9389 10.8829C25.0617 10.6481 25.0494 10.6481 24.423 10.8582C23.3789 11.2289 23.2315 11.1795 23.7474 10.6234C24.1282 10.2279 24.5826 9.51115 24.5826 9.30107C24.5826 9.26399 24.3984 9.32578 24.1896 9.437C23.9685 9.56058 23.4771 9.74595 23.1086 9.85718L22.4453 10.0673L21.8434 9.65945C21.5118 9.437 21.045 9.18985 20.7993 9.1157C20.1729 8.94269 19.2148 8.9674 18.6497 9.16513C17.1143 9.72124 16.1439 11.1548 16.2545 12.7242Z" fill="black"/>
<circle cx="15.5" cy="15.5" r="15" stroke="black" stroke-opacity="0.2"/>
</svg>
