<svg width="49" height="19" viewBox="0 0 49 19" fill="none" xmlns="http://www.w3.org/2000/svg">
<path d="M2.01789 2.41615L6.51227 14.1643H7.66389L12.0462 2.75852C12.7494 0.92929 13.0551 0.606484 14.2169 0.459754V0H10.0691V0.459754C11.6079 0.655394 11.771 1.03689 11.1697 2.70961L7.85753 11.9438L4.3619 2.41615C3.84214 1.00755 4.06635 0.626048 5.48294 0.459754V0H0V0.459754C1.11086 0.606484 1.44717 0.92929 2.01789 2.41615Z" fill="black"/>
<path d="M12.729 9.36137C12.729 12.3742 14.8182 14.3111 17.6412 14.3111C19.333 14.3111 20.6681 13.685 21.3305 12.8046V12.3449C20.7394 12.922 19.8222 13.3133 18.7011 13.3133C16.3877 13.3133 14.8488 11.5428 14.7673 8.94075H21.4936C21.5139 8.79402 21.5343 8.57881 21.5343 8.37339C21.5343 5.98658 20.0362 4.38234 17.417 4.38234C14.5838 4.38234 12.729 6.4659 12.729 9.36137ZM17.4068 5.00838C18.854 5.00838 19.598 6.2507 19.598 8.07015C19.598 8.18753 19.598 8.28535 19.5878 8.38317L14.7673 8.40274C14.859 6.18222 15.8679 5.00838 17.4068 5.00838Z" fill="black"/>
<path d="M23.4401 7.11151C23.4401 8.57881 24.5306 9.41028 26.3344 9.94829L27.1192 10.1831C28.495 10.5841 29.0759 11.0928 29.0759 12.0123C29.0759 12.9611 28.2402 13.6557 26.9357 13.6557C25.5293 13.6557 24.1739 12.7264 23.7866 10.9167H23.3484L23.4503 13.4796C24.1331 13.9393 25.4376 14.2915 26.9459 14.2915C28.9434 14.2915 30.7881 13.235 30.7881 11.4743C30.7881 9.91895 29.7384 9.019 27.9447 8.50056L27.1599 8.27557C25.886 7.89407 25.1522 7.46366 25.1522 6.54416C25.1522 5.62465 25.9472 5.00838 27.2313 5.00838C28.5562 5.00838 29.6059 5.84964 29.9014 7.43432H30.3498L30.2887 5.01817C29.7791 4.68558 28.6886 4.38234 27.2211 4.38234C25.0401 4.38234 23.4401 5.37032 23.4401 7.11151Z" fill="black"/>
<path d="M42.8852 9.25377C42.8852 6.16266 40.9386 4.38234 38.7475 4.38234C37.2799 4.38234 35.9755 5.08664 35.4251 6.15288V4.46059L32.1333 4.82253V5.22359L32.7958 5.40945C33.3665 5.56596 33.448 5.68334 33.448 6.20179V17.2457C33.448 17.8717 33.2951 18.0282 32.1333 18.1652V18.6249H36.8927V18.1652C35.5984 18.0184 35.4557 17.8717 35.4557 17.1283V13.1666C35.9551 13.8415 36.9029 14.3111 38.0953 14.3111C40.7552 14.3111 42.8852 12.2764 42.8852 9.25377ZM40.7858 9.46897C40.7858 11.9732 39.5119 13.6068 37.6468 13.6068C36.6379 13.6068 35.7818 13.1274 35.4557 12.5112V6.56372C35.9041 5.80073 36.699 5.3801 37.7691 5.3801C39.5526 5.3801 40.7858 6.96478 40.7858 9.46897Z" fill="black"/>
<path d="M46.4827 2.63136C47.1656 2.63136 47.7159 2.12269 47.7159 1.48686C47.7159 0.841252 47.1656 0.34237 46.4827 0.34237C45.7999 0.34237 45.2496 0.841252 45.2496 1.48686C45.2496 2.12269 45.7999 2.63136 46.4827 2.63136ZM47.6853 4.46059L44.3629 4.82253V5.22359L45.0254 5.40945C45.5961 5.56596 45.6776 5.68334 45.6776 6.20179V12.7166C45.6776 13.3622 45.5044 13.5187 44.3629 13.6655V14.1252H49V13.6655C47.8586 13.5187 47.6853 13.3622 47.6853 12.7166V4.46059Z" fill="black"/>
</svg>
