<svg width="21" height="15" viewBox="0 0 21 15" fill="none" xmlns="http://www.w3.org/2000/svg">
<path fill-rule="evenodd" clip-rule="evenodd" d="M19.6029 3.02999C19.3844 2.23091 18.7406 1.60167 17.9231 1.38811C16.4415 1 10.5 1 10.5 1C10.5 1 4.55851 1 3.07683 1.38811C2.25929 1.60167 1.61545 2.23091 1.39695 3.02999C1 4.47823 1 7.5 1 7.5C1 7.5 1 10.5217 1.39695 11.97C1.61545 12.7691 2.25929 13.3983 3.07683 13.612C4.55851 14 10.5 14 10.5 14C10.5 14 16.4415 14 17.9231 13.612C18.7406 13.3983 19.3844 12.7691 19.6029 11.97C20 10.5217 20 7.5 20 7.5C20 7.5 20 4.47823 19.6029 3.02999Z" fill="black" stroke="black"/>
<path fill-rule="evenodd" clip-rule="evenodd" d="M8.71875 10.6087V4.95654L13.4688 7.78274L8.71875 10.6087Z" fill="white"/>
</svg>
